<?xml version="1.0" standalone="no"?>
<!DOCTYPE svg PUBLIC "-//W3C//DTD SVG 20010904//EN"
 "http://www.w3.org/TR/2001/REC-SVG-20010904/DTD/svg10.dtd">
<svg version="1.0" xmlns="http://www.w3.org/2000/svg"
 width="200.000000pt" height="200.000000pt" viewBox="0 0 200.000000 200.000000"
 preserveAspectRatio="xMidYMid meet">

<g transform="translate(0.000000,200.000000) scale(0.100000,-0.100000)"
fill="#000000" stroke="none">
<path d="M207 1292 c-15 -16 -17 -52 -17 -294 0 -254 1 -276 18 -291 16 -14
43 -17 164 -17 128 0 147 2 161 18 15 16 17 52 17 294 0 254 -1 276 -18 291
-16 14 -43 17 -164 17 -128 0 -147 -2 -161 -18z m317 -28 c8 -20 8 -508 0
-528 -9 -24 -299 -24 -308 0 -8 20 -8 508 0 528 9 24 299 24 308 0z"/>
<path d="M310 1240 c0 -5 23 -10 51 -10 31 0 48 4 44 10 -3 6 -26 10 -51 10
-24 0 -44 -4 -44 -10z"/>
<path d="M425 1240 c-3 -5 -1 -10 4 -10 6 0 11 5 11 10 0 6 -2 10 -4 10 -3 0
-8 -4 -11 -10z"/>
<path d="M346 804 c-9 -8 -16 -22 -16 -29 0 -17 27 -45 44 -45 36 0 49 62 17
80 -25 13 -27 13 -45 -6z m41 -20 c8 -21 -13 -42 -28 -27 -13 13 -5 43 11 43
6 0 13 -7 17 -16z"/>
</g>
</svg>
